<svg xmlns="http://www.w3.org/2000/svg" xmlns:xlink="http://www.w3.org/1999/xlink" width="1024" zoomAndPan="magnify" viewBox="0 0 768 576" height="768" preserveAspectRatio="xMidYMid meet" version="1.0"><defs><g/><clipPath id="017ed87361"><path d="M 188.414062 27.117188 L 223.691406 27.117188 L 223.691406 98.574219 L 188.414062 98.574219 Z M 188.414062 27.117188 " clip-rule="nonzero"/></clipPath><clipPath id="5d54580385"><path d="M 188.414062 133.769531 L 223.691406 133.769531 L 223.691406 205.226562 L 188.414062 205.226562 Z M 188.414062 133.769531 " clip-rule="nonzero"/></clipPath><clipPath id="61cf1413ea"><path d="M 188.414062 240.421875 L 258.96875 240.421875 L 258.96875 311.878906 L 188.414062 311.878906 Z M 188.414062 240.421875 " clip-rule="nonzero"/></clipPath><clipPath id="b98b5a4539"><path d="M 188.414062 347.074219 L 435.359375 347.074219 L 435.359375 418.53125 L 188.414062 418.53125 Z M 188.414062 347.074219 " clip-rule="nonzero"/></clipPath><clipPath id="18db101383"><path d="M 188.414062 453.726562 L 682.308594 453.726562 L 682.308594 525.183594 L 188.414062 525.183594 Z M 188.414062 453.726562 " clip-rule="nonzero"/></clipPath></defs><g fill="#818caf" fill-opacity="1"><g transform="translate(181.103824, 550.604997)"><g><path d="M 6.875 0.203125 C 5.726562 0.203125 4.726562 -0.0507812 3.875 -0.5625 C 3.019531 -1.070312 2.359375 -1.863281 1.890625 -2.9375 C 1.421875 -4.019531 1.1875 -5.382812 1.1875 -7.03125 C 1.1875 -8.6875 1.421875 -10.050781 1.890625 -11.125 C 2.359375 -12.207031 3.019531 -13.003906 3.875 -13.515625 C 4.726562 -14.023438 5.726562 -14.28125 6.875 -14.28125 C 8.03125 -14.28125 9.03125 -14.023438 9.875 -13.515625 C 10.726562 -13.003906 11.390625 -12.207031 11.859375 -11.125 C 12.335938 -10.050781 12.578125 -8.6875 12.578125 -7.03125 C 12.578125 -5.382812 12.335938 -4.019531 11.859375 -2.9375 C 11.390625 -1.863281 10.726562 -1.070312 9.875 -0.5625 C 9.03125 -0.0507812 8.03125 0.203125 6.875 0.203125 Z M 6.875 -2.15625 C 7.5 -2.15625 8.023438 -2.304688 8.453125 -2.609375 C 8.878906 -2.921875 9.203125 -3.4375 9.421875 -4.15625 C 9.648438 -4.875 9.765625 -5.832031 9.765625 -7.03125 C 9.765625 -8.238281 9.648438 -9.203125 9.421875 -9.921875 C 9.203125 -10.640625 8.878906 -11.148438 8.453125 -11.453125 C 8.023438 -11.765625 7.5 -11.921875 6.875 -11.921875 C 6.25 -11.921875 5.722656 -11.765625 5.296875 -11.453125 C 4.867188 -11.148438 4.539062 -10.640625 4.3125 -9.921875 C 4.082031 -9.203125 3.96875 -8.238281 3.96875 -7.03125 C 3.96875 -5.832031 4.082031 -4.875 4.3125 -4.15625 C 4.539062 -3.4375 4.867188 -2.921875 5.296875 -2.609375 C 5.722656 -2.304688 6.25 -2.15625 6.875 -2.15625 Z M 6.875 -2.15625 "/></g></g></g><g fill="#818caf" fill-opacity="1"><g transform="translate(253.916586, 550.604997)"><g><path d="M 0.6875 -1.109375 C 0.6875 -1.890625 0.769531 -2.546875 0.9375 -3.078125 C 1.101562 -3.609375 1.378906 -4.09375 1.765625 -4.53125 C 2.148438 -4.976562 2.695312 -5.453125 3.40625 -5.953125 L 5.28125 -7.3125 C 5.800781 -7.675781 6.203125 -7.992188 6.484375 -8.265625 C 6.765625 -8.535156 6.976562 -8.816406 7.125 -9.109375 C 7.269531 -9.410156 7.34375 -9.75 7.34375 -10.125 C 7.34375 -10.695312 7.171875 -11.140625 6.828125 -11.453125 C 6.484375 -11.765625 5.960938 -11.921875 5.265625 -11.921875 C 4.597656 -11.921875 4.003906 -11.757812 3.484375 -11.4375 C 2.960938 -11.125 2.53125 -10.691406 2.1875 -10.140625 L 2.015625 -10.09375 L 0.484375 -11.796875 C 0.984375 -12.546875 1.632812 -13.144531 2.4375 -13.59375 C 3.25 -14.050781 4.226562 -14.28125 5.375 -14.28125 C 6.425781 -14.28125 7.304688 -14.101562 8.015625 -13.75 C 8.722656 -13.40625 9.25 -12.929688 9.59375 -12.328125 C 9.9375 -11.734375 10.109375 -11.046875 10.109375 -10.265625 C 10.109375 -9.597656 9.96875 -8.988281 9.6875 -8.4375 C 9.40625 -7.882812 9.019531 -7.375 8.53125 -6.90625 C 8.039062 -6.4375 7.410156 -5.9375 6.640625 -5.40625 L 4.96875 -4.234375 C 4.46875 -3.878906 4.117188 -3.5625 3.921875 -3.28125 C 3.722656 -3 3.625 -2.679688 3.625 -2.328125 L 9.96875 -2.328125 L 9.96875 0 L 0.6875 0 Z M 0.6875 -1.109375 "/></g></g></g><g fill="#818caf" fill-opacity="1"><g transform="translate(323.824514, 550.604997)"><g><path d="M 9.5625 0 L 6.890625 0 L 6.890625 -3.0625 L 0.484375 -3.0625 L 0.484375 -5.3125 L 6 -14.078125 L 9.5625 -14.078125 L 9.5625 -5.3125 L 11.734375 -5.3125 L 11.734375 -3.0625 L 9.5625 -3.0625 Z M 3.328125 -5.5 L 3.421875 -5.3125 L 6.890625 -5.3125 L 6.890625 -10.75 L 6.671875 -10.796875 Z M 3.328125 -5.5 "/></g></g></g><g fill="#818caf" fill-opacity="1"><g transform="translate(393.691922, 550.604997)"><g><path d="M 6.734375 0.203125 C 5.671875 0.203125 4.722656 -0.0390625 3.890625 -0.53125 C 3.054688 -1.019531 2.394531 -1.796875 1.90625 -2.859375 C 1.425781 -3.921875 1.1875 -5.269531 1.1875 -6.90625 C 1.1875 -8.570312 1.441406 -9.953125 1.953125 -11.046875 C 2.460938 -12.148438 3.160156 -12.960938 4.046875 -13.484375 C 4.941406 -14.015625 5.960938 -14.28125 7.109375 -14.28125 C 8.066406 -14.28125 8.890625 -14.140625 9.578125 -13.859375 C 10.273438 -13.585938 10.816406 -13.179688 11.203125 -12.640625 L 9.828125 -10.890625 L 9.59375 -10.890625 C 9.007812 -11.585938 8.179688 -11.9375 7.109375 -11.9375 C 5.109375 -11.9375 4.085938 -10.46875 4.046875 -7.53125 L 4.25 -7.46875 C 4.570312 -8.070312 5 -8.53125 5.53125 -8.84375 C 6.070312 -9.164062 6.75 -9.328125 7.5625 -9.328125 C 8.4375 -9.328125 9.191406 -9.140625 9.828125 -8.765625 C 10.460938 -8.398438 10.945312 -7.875 11.28125 -7.1875 C 11.625 -6.5 11.796875 -5.6875 11.796875 -4.75 C 11.796875 -3.71875 11.59375 -2.828125 11.1875 -2.078125 C 10.78125 -1.335938 10.195312 -0.769531 9.4375 -0.375 C 8.675781 0.0078125 7.773438 0.203125 6.734375 0.203125 Z M 6.671875 -2.171875 C 7.398438 -2.171875 7.96875 -2.382812 8.375 -2.8125 C 8.789062 -3.238281 9 -3.835938 9 -4.609375 C 9 -5.378906 8.789062 -5.976562 8.375 -6.40625 C 7.96875 -6.832031 7.398438 -7.046875 6.671875 -7.046875 C 6.191406 -7.046875 5.773438 -6.945312 5.421875 -6.75 C 5.066406 -6.550781 4.789062 -6.269531 4.59375 -5.90625 C 4.40625 -5.539062 4.3125 -5.109375 4.3125 -4.609375 C 4.3125 -3.859375 4.519531 -3.265625 4.9375 -2.828125 C 5.363281 -2.390625 5.941406 -2.171875 6.671875 -2.171875 Z M 6.671875 -2.171875 "/></g></g></g><g fill="#818caf" fill-opacity="1"><g transform="translate(464.167301, 550.604997)"><g><path d="M 6.03125 0.203125 C 4.914062 0.203125 3.972656 0.03125 3.203125 -0.3125 C 2.429688 -0.664062 1.847656 -1.160156 1.453125 -1.796875 C 1.054688 -2.441406 0.859375 -3.203125 0.859375 -4.078125 C 0.859375 -4.898438 1.0625 -5.609375 1.46875 -6.203125 C 1.875 -6.796875 2.46875 -7.265625 3.25 -7.609375 L 3.25 -7.8125 C 2.695312 -8.144531 2.273438 -8.546875 1.984375 -9.015625 C 1.691406 -9.484375 1.546875 -10.035156 1.546875 -10.671875 C 1.546875 -11.378906 1.71875 -12.003906 2.0625 -12.546875 C 2.414062 -13.097656 2.929688 -13.523438 3.609375 -13.828125 C 4.285156 -14.128906 5.09375 -14.28125 6.03125 -14.28125 C 6.976562 -14.28125 7.785156 -14.128906 8.453125 -13.828125 C 9.128906 -13.523438 9.644531 -13.097656 10 -12.546875 C 10.351562 -12.003906 10.53125 -11.378906 10.53125 -10.671875 C 10.53125 -10.035156 10.378906 -9.484375 10.078125 -9.015625 C 9.785156 -8.554688 9.363281 -8.15625 8.8125 -7.8125 L 8.8125 -7.609375 C 9.632812 -7.273438 10.238281 -6.804688 10.625 -6.203125 C 11.007812 -5.609375 11.203125 -4.898438 11.203125 -4.078125 C 11.203125 -3.203125 11.003906 -2.441406 10.609375 -1.796875 C 10.210938 -1.160156 9.628906 -0.664062 8.859375 -0.3125 C 8.097656 0.03125 7.15625 0.203125 6.03125 0.203125 Z M 6.03125 -8.59375 C 6.59375 -8.59375 7.035156 -8.742188 7.359375 -9.046875 C 7.691406 -9.359375 7.859375 -9.789062 7.859375 -10.34375 C 7.859375 -10.894531 7.691406 -11.328125 7.359375 -11.640625 C 7.035156 -11.953125 6.59375 -12.109375 6.03125 -12.109375 C 5.46875 -12.109375 5.019531 -11.953125 4.6875 -11.640625 C 4.363281 -11.328125 4.203125 -10.894531 4.203125 -10.34375 C 4.203125 -9.789062 4.363281 -9.359375 4.6875 -9.046875 C 5.019531 -8.742188 5.46875 -8.59375 6.03125 -8.59375 Z M 6.03125 -2.171875 C 6.78125 -2.171875 7.359375 -2.359375 7.765625 -2.734375 C 8.179688 -3.109375 8.390625 -3.628906 8.390625 -4.296875 C 8.390625 -4.960938 8.179688 -5.484375 7.765625 -5.859375 C 7.359375 -6.234375 6.78125 -6.421875 6.03125 -6.421875 C 5.28125 -6.421875 4.695312 -6.234375 4.28125 -5.859375 C 3.875 -5.484375 3.671875 -4.960938 3.671875 -4.296875 C 3.671875 -3.628906 3.875 -3.109375 4.28125 -2.734375 C 4.695312 -2.359375 5.28125 -2.171875 6.03125 -2.171875 Z M 6.03125 -2.171875 "/></g></g></g><g fill="#818caf" fill-opacity="1"><g transform="translate(529.738212, 550.604997)"><g><path d="M 0.734375 0 L 0.734375 -2.296875 L 4.140625 -2.296875 L 4.140625 -11.0625 L 3.921875 -11.125 C 3.441406 -10.894531 2.96875 -10.710938 2.5 -10.578125 C 2.03125 -10.441406 1.5 -10.332031 0.90625 -10.25 L 0.90625 -12.625 C 2.46875 -12.957031 3.726562 -13.441406 4.6875 -14.078125 L 6.890625 -14.078125 L 6.890625 -2.296875 L 9.921875 -2.296875 L 9.921875 0 Z M 0.734375 0 "/></g></g></g><g fill="#818caf" fill-opacity="1"><g transform="translate(539.758014, 550.604997)"><g><path d="M 6.875 0.203125 C 5.726562 0.203125 4.726562 -0.0507812 3.875 -0.5625 C 3.019531 -1.070312 2.359375 -1.863281 1.890625 -2.9375 C 1.421875 -4.019531 1.1875 -5.382812 1.1875 -7.03125 C 1.1875 -8.6875 1.421875 -10.050781 1.890625 -11.125 C 2.359375 -12.207031 3.019531 -13.003906 3.875 -13.515625 C 4.726562 -14.023438 5.726562 -14.28125 6.875 -14.28125 C 8.03125 -14.28125 9.03125 -14.023438 9.875 -13.515625 C 10.726562 -13.003906 11.390625 -12.207031 11.859375 -11.125 C 12.335938 -10.050781 12.578125 -8.6875 12.578125 -7.03125 C 12.578125 -5.382812 12.335938 -4.019531 11.859375 -2.9375 C 11.390625 -1.863281 10.726562 -1.070312 9.875 -0.5625 C 9.03125 -0.0507812 8.03125 0.203125 6.875 0.203125 Z M 6.875 -2.15625 C 7.5 -2.15625 8.023438 -2.304688 8.453125 -2.609375 C 8.878906 -2.921875 9.203125 -3.4375 9.421875 -4.15625 C 9.648438 -4.875 9.765625 -5.832031 9.765625 -7.03125 C 9.765625 -8.238281 9.648438 -9.203125 9.421875 -9.921875 C 9.203125 -10.640625 8.878906 -11.148438 8.453125 -11.453125 C 8.023438 -11.765625 7.5 -11.921875 6.875 -11.921875 C 6.25 -11.921875 5.722656 -11.765625 5.296875 -11.453125 C 4.867188 -11.148438 4.539062 -10.640625 4.3125 -9.921875 C 4.082031 -9.203125 3.96875 -8.238281 3.96875 -7.03125 C 3.96875 -5.832031 4.082031 -4.875 4.3125 -4.15625 C 4.539062 -3.4375 4.867188 -2.921875 5.296875 -2.609375 C 5.722656 -2.304688 6.25 -2.15625 6.875 -2.15625 Z M 6.875 -2.15625 "/></g></g></g><g fill="#818caf" fill-opacity="1"><g transform="translate(601.497105, 550.604997)"><g><path d="M 0.734375 0 L 0.734375 -2.296875 L 4.140625 -2.296875 L 4.140625 -11.0625 L 3.921875 -11.125 C 3.441406 -10.894531 2.96875 -10.710938 2.5 -10.578125 C 2.03125 -10.441406 1.5 -10.332031 0.90625 -10.25 L 0.90625 -12.625 C 2.46875 -12.957031 3.726562 -13.441406 4.6875 -14.078125 L 6.890625 -14.078125 L 6.890625 -2.296875 L 9.921875 -2.296875 L 9.921875 0 Z M 0.734375 0 "/></g></g></g><g fill="#818caf" fill-opacity="1"><g transform="translate(611.882718, 550.604997)"><g><path d="M 0.6875 -1.109375 C 0.6875 -1.890625 0.769531 -2.546875 0.9375 -3.078125 C 1.101562 -3.609375 1.378906 -4.09375 1.765625 -4.53125 C 2.148438 -4.976562 2.695312 -5.453125 3.40625 -5.953125 L 5.28125 -7.3125 C 5.800781 -7.675781 6.203125 -7.992188 6.484375 -8.265625 C 6.765625 -8.535156 6.976562 -8.816406 7.125 -9.109375 C 7.269531 -9.410156 7.34375 -9.75 7.34375 -10.125 C 7.34375 -10.695312 7.171875 -11.140625 6.828125 -11.453125 C 6.484375 -11.765625 5.960938 -11.921875 5.265625 -11.921875 C 4.597656 -11.921875 4.003906 -11.757812 3.484375 -11.4375 C 2.960938 -11.125 2.53125 -10.691406 2.1875 -10.140625 L 2.015625 -10.09375 L 0.484375 -11.796875 C 0.984375 -12.546875 1.632812 -13.144531 2.4375 -13.59375 C 3.25 -14.050781 4.226562 -14.28125 5.375 -14.28125 C 6.425781 -14.28125 7.304688 -14.101562 8.015625 -13.75 C 8.722656 -13.40625 9.25 -12.929688 9.59375 -12.328125 C 9.9375 -11.734375 10.109375 -11.046875 10.109375 -10.265625 C 10.109375 -9.597656 9.96875 -8.988281 9.6875 -8.4375 C 9.40625 -7.882812 9.019531 -7.375 8.53125 -6.90625 C 8.039062 -6.4375 7.410156 -5.9375 6.640625 -5.40625 L 4.96875 -4.234375 C 4.46875 -3.878906 4.117188 -3.5625 3.921875 -3.28125 C 3.722656 -3 3.625 -2.679688 3.625 -2.328125 L 9.96875 -2.328125 L 9.96875 0 L 0.6875 0 Z M 0.6875 -1.109375 "/></g></g></g><g fill="#818caf" fill-opacity="1"><g transform="translate(671.418585, 550.604997)"><g><path d="M 0.734375 0 L 0.734375 -2.296875 L 4.140625 -2.296875 L 4.140625 -11.0625 L 3.921875 -11.125 C 3.441406 -10.894531 2.96875 -10.710938 2.5 -10.578125 C 2.03125 -10.441406 1.5 -10.332031 0.90625 -10.25 L 0.90625 -12.625 C 2.46875 -12.957031 3.726562 -13.441406 4.6875 -14.078125 L 6.890625 -14.078125 L 6.890625 -2.296875 L 9.921875 -2.296875 L 9.921875 0 Z M 0.734375 0 "/></g></g></g><g fill="#818caf" fill-opacity="1"><g transform="translate(681.804198, 550.604997)"><g><path d="M 9.5625 0 L 6.890625 0 L 6.890625 -3.0625 L 0.484375 -3.0625 L 0.484375 -5.3125 L 6 -14.078125 L 9.5625 -14.078125 L 9.5625 -5.3125 L 11.734375 -5.3125 L 11.734375 -3.0625 L 9.5625 -3.0625 Z M 3.328125 -5.5 L 3.421875 -5.3125 L 6.890625 -5.3125 L 6.890625 -10.75 L 6.671875 -10.796875 Z M 3.328125 -5.5 "/></g></g></g><g fill="#818caf" fill-opacity="1"><g transform="translate(100.285648, 68.465189)"><g><path d="M 6.890625 -14.078125 C 9.179688 -14.078125 10.925781 -13.484375 12.125 -12.296875 C 13.332031 -11.117188 13.9375 -9.363281 13.9375 -7.03125 C 13.9375 -4.707031 13.332031 -2.953125 12.125 -1.765625 C 10.925781 -0.585938 9.179688 0 6.890625 0 L 1.828125 0 L 1.828125 -14.078125 Z M 6.734375 -2.34375 C 8.179688 -2.34375 9.265625 -2.710938 9.984375 -3.453125 C 10.703125 -4.191406 11.0625 -5.382812 11.0625 -7.03125 C 11.0625 -8.6875 10.703125 -9.882812 9.984375 -10.625 C 9.265625 -11.363281 8.179688 -11.734375 6.734375 -11.734375 L 4.609375 -11.734375 L 4.609375 -2.34375 Z M 6.734375 -2.34375 "/></g></g></g><g fill="#818caf" fill-opacity="1"><g transform="translate(115.320233, 68.465189)"><g><path d="M 2.859375 -11.890625 C 2.378906 -11.890625 1.988281 -12.035156 1.6875 -12.328125 C 1.382812 -12.617188 1.234375 -12.992188 1.234375 -13.453125 C 1.234375 -13.910156 1.382812 -14.285156 1.6875 -14.578125 C 1.988281 -14.867188 2.378906 -15.015625 2.859375 -15.015625 C 3.179688 -15.015625 3.46875 -14.945312 3.71875 -14.8125 C 3.96875 -14.675781 4.160156 -14.488281 4.296875 -14.25 C 4.429688 -14.019531 4.5 -13.753906 4.5 -13.453125 C 4.5 -13.160156 4.429688 -12.894531 4.296875 -12.65625 C 4.160156 -12.414062 3.96875 -12.226562 3.71875 -12.09375 C 3.46875 -11.957031 3.179688 -11.890625 2.859375 -11.890625 Z M 4.203125 0 L 1.53125 0 L 1.53125 -10.625 L 4.203125 -10.625 Z M 4.203125 0 "/></g></g></g><g fill="#818caf" fill-opacity="1"><g transform="translate(121.037611, 68.465189)"><g><path d="M 4.96875 0.203125 C 4.238281 0.203125 3.570312 0.117188 2.96875 -0.046875 C 2.363281 -0.222656 1.847656 -0.457031 1.421875 -0.75 C 1.003906 -1.050781 0.691406 -1.394531 0.484375 -1.78125 L 1.96875 -3.375 L 2.171875 -3.375 C 2.523438 -2.90625 2.941406 -2.550781 3.421875 -2.3125 C 3.898438 -2.070312 4.421875 -1.953125 4.984375 -1.953125 C 5.503906 -1.953125 5.894531 -2.046875 6.15625 -2.234375 C 6.425781 -2.421875 6.5625 -2.6875 6.5625 -3.03125 C 6.5625 -3.300781 6.460938 -3.523438 6.265625 -3.703125 C 6.078125 -3.890625 5.773438 -4.035156 5.359375 -4.140625 L 3.953125 -4.484375 C 2.898438 -4.734375 2.128906 -5.113281 1.640625 -5.625 C 1.160156 -6.144531 0.921875 -6.800781 0.921875 -7.59375 C 0.921875 -8.257812 1.085938 -8.832031 1.421875 -9.3125 C 1.753906 -9.800781 2.226562 -10.175781 2.84375 -10.4375 C 3.457031 -10.695312 4.171875 -10.828125 4.984375 -10.828125 C 5.941406 -10.828125 6.734375 -10.6875 7.359375 -10.40625 C 7.992188 -10.132812 8.488281 -9.765625 8.84375 -9.296875 L 7.40625 -7.765625 L 7.21875 -7.765625 C 6.925781 -8.097656 6.59375 -8.335938 6.21875 -8.484375 C 5.851562 -8.640625 5.441406 -8.71875 4.984375 -8.71875 C 3.929688 -8.71875 3.40625 -8.390625 3.40625 -7.734375 C 3.40625 -7.460938 3.503906 -7.238281 3.703125 -7.0625 C 3.898438 -6.894531 4.242188 -6.753906 4.734375 -6.640625 L 6.046875 -6.359375 C 7.128906 -6.128906 7.914062 -5.757812 8.40625 -5.25 C 8.90625 -4.738281 9.15625 -4.050781 9.15625 -3.1875 C 9.15625 -2.507812 8.988281 -1.914062 8.65625 -1.40625 C 8.320312 -0.894531 7.835938 -0.5 7.203125 -0.21875 C 6.578125 0.0625 5.832031 0.203125 4.96875 0.203125 Z M 4.96875 0.203125 "/></g></g></g><g fill="#818caf" fill-opacity="1"><g transform="translate(130.82646, 68.465189)"><g><path d="M 6.1875 0.203125 C 5.164062 0.203125 4.257812 -0.0078125 3.46875 -0.4375 C 2.675781 -0.863281 2.054688 -1.488281 1.609375 -2.3125 C 1.171875 -3.144531 0.953125 -4.144531 0.953125 -5.3125 C 0.953125 -6.476562 1.171875 -7.472656 1.609375 -8.296875 C 2.054688 -9.128906 2.671875 -9.757812 3.453125 -10.1875 C 4.234375 -10.613281 5.128906 -10.828125 6.140625 -10.828125 C 8.378906 -10.828125 9.816406 -10.015625 10.453125 -8.390625 L 8.625 -7.078125 L 8.421875 -7.078125 C 8.203125 -7.578125 7.914062 -7.945312 7.5625 -8.1875 C 7.207031 -8.4375 6.734375 -8.5625 6.140625 -8.5625 C 5.367188 -8.5625 4.769531 -8.296875 4.34375 -7.765625 C 3.914062 -7.234375 3.703125 -6.414062 3.703125 -5.3125 C 3.703125 -4.21875 3.914062 -3.398438 4.34375 -2.859375 C 4.78125 -2.328125 5.394531 -2.0625 6.1875 -2.0625 C 6.769531 -2.0625 7.257812 -2.21875 7.65625 -2.53125 C 8.0625 -2.84375 8.347656 -3.289062 8.515625 -3.875 L 8.71875 -3.890625 L 10.625 -2.84375 C 10.351562 -1.945312 9.851562 -1.210938 9.125 -0.640625 C 8.394531 -0.078125 7.414062 0.203125 6.1875 0.203125 Z M 6.1875 0.203125 "/></g></g></g><g fill="#818caf" fill-opacity="1"><g transform="translate(141.770336, 68.465189)"><g><path d="M 6.171875 0.203125 C 5.128906 0.203125 4.210938 -0.0078125 3.421875 -0.4375 C 2.640625 -0.863281 2.03125 -1.488281 1.59375 -2.3125 C 1.164062 -3.132812 0.953125 -4.132812 0.953125 -5.3125 C 0.953125 -6.476562 1.164062 -7.472656 1.59375 -8.296875 C 2.03125 -9.128906 2.640625 -9.757812 3.421875 -10.1875 C 4.210938 -10.613281 5.128906 -10.828125 6.171875 -10.828125 C 7.210938 -10.828125 8.125 -10.613281 8.90625 -10.1875 C 9.695312 -9.757812 10.3125 -9.128906 10.75 -8.296875 C 11.1875 -7.472656 11.40625 -6.476562 11.40625 -5.3125 C 11.40625 -4.132812 11.1875 -3.132812 10.75 -2.3125 C 10.3125 -1.488281 9.695312 -0.863281 8.90625 -0.4375 C 8.125 -0.0078125 7.210938 0.203125 6.171875 0.203125 Z M 6.171875 -2.0625 C 7.816406 -2.0625 8.640625 -3.144531 8.640625 -5.3125 C 8.640625 -6.425781 8.425781 -7.242188 8 -7.765625 C 7.582031 -8.296875 6.972656 -8.5625 6.171875 -8.5625 C 4.523438 -8.5625 3.703125 -7.476562 3.703125 -5.3125 C 3.703125 -3.144531 4.523438 -2.0625 6.171875 -2.0625 Z M 6.171875 -2.0625 "/></g></g></g><g fill="#818caf" fill-opacity="1"><g transform="translate(154.10986, 68.465189)"><g><path d="M 1.53125 0 L 1.53125 -10.625 L 4.125 -10.625 L 4.125 -9.046875 L 4.328125 -9 C 4.578125 -9.59375 4.910156 -10.023438 5.328125 -10.296875 C 5.742188 -10.578125 6.253906 -10.71875 6.859375 -10.71875 C 7.460938 -10.71875 7.921875 -10.613281 8.234375 -10.40625 L 7.78125 -8.109375 L 7.578125 -8.0625 C 7.398438 -8.132812 7.234375 -8.1875 7.078125 -8.21875 C 6.921875 -8.25 6.722656 -8.265625 6.484375 -8.265625 C 5.742188 -8.265625 5.175781 -8.003906 4.78125 -7.484375 C 4.394531 -6.960938 4.203125 -6.125 4.203125 -4.96875 L 4.203125 0 Z M 1.53125 0 "/></g></g></g><g fill="#818caf" fill-opacity="1"><g transform="translate(162.156513, 68.465189)"><g><path d="M 5.25 0.203125 C 4.40625 0.203125 3.660156 0 3.015625 -0.40625 C 2.367188 -0.8125 1.863281 -1.425781 1.5 -2.25 C 1.132812 -3.082031 0.953125 -4.101562 0.953125 -5.3125 C 0.953125 -6.519531 1.140625 -7.535156 1.515625 -8.359375 C 1.890625 -9.179688 2.410156 -9.796875 3.078125 -10.203125 C 3.742188 -10.617188 4.507812 -10.828125 5.375 -10.828125 C 6.039062 -10.828125 6.613281 -10.710938 7.09375 -10.484375 C 7.582031 -10.253906 7.992188 -9.898438 8.328125 -9.421875 L 8.53125 -9.46875 L 8.53125 -14.890625 L 11.203125 -14.890625 L 11.203125 0 L 8.53125 0 L 8.53125 -1.375 L 8.328125 -1.421875 C 8.035156 -0.921875 7.628906 -0.523438 7.109375 -0.234375 C 6.597656 0.0546875 5.976562 0.203125 5.25 0.203125 Z M 6.109375 -2.0625 C 6.859375 -2.0625 7.453125 -2.328125 7.890625 -2.859375 C 8.328125 -3.398438 8.546875 -4.21875 8.546875 -5.3125 C 8.546875 -6.394531 8.328125 -7.207031 7.890625 -7.75 C 7.453125 -8.289062 6.859375 -8.5625 6.109375 -8.5625 C 5.328125 -8.5625 4.726562 -8.296875 4.3125 -7.765625 C 3.90625 -7.242188 3.703125 -6.425781 3.703125 -5.3125 C 3.703125 -4.1875 3.90625 -3.363281 4.3125 -2.84375 C 4.726562 -2.320312 5.328125 -2.0625 6.109375 -2.0625 Z M 6.109375 -2.0625 "/></g></g></g><g fill="#818caf" fill-opacity="1"><g transform="translate(80.113834, 175.117587)"><g><path d="M 10.75 -14.078125 L 10.75 -11.75 L 4.609375 -11.75 L 4.609375 -8.015625 L 10.1875 -8.015625 L 10.1875 -5.71875 L 4.609375 -5.71875 L 4.609375 0 L 1.828125 0 L 1.828125 -14.078125 Z M 10.75 -14.078125 "/></g></g></g><g fill="#818caf" fill-opacity="1"><g transform="translate(90.845862, 175.117587)"><g><path d="M 4.140625 0.203125 C 3.460938 0.203125 2.875 0.078125 2.375 -0.171875 C 1.875 -0.421875 1.488281 -0.785156 1.21875 -1.265625 C 0.945312 -1.753906 0.8125 -2.335938 0.8125 -3.015625 C 0.8125 -3.648438 0.945312 -4.179688 1.21875 -4.609375 C 1.488281 -5.035156 1.90625 -5.382812 2.46875 -5.65625 C 3.03125 -5.925781 3.765625 -6.132812 4.671875 -6.28125 C 5.304688 -6.382812 5.789062 -6.5 6.125 -6.625 C 6.457031 -6.75 6.679688 -6.882812 6.796875 -7.03125 C 6.910156 -7.1875 6.96875 -7.382812 6.96875 -7.625 C 6.96875 -7.96875 6.847656 -8.226562 6.609375 -8.40625 C 6.378906 -8.582031 5.988281 -8.671875 5.4375 -8.671875 C 4.84375 -8.671875 4.28125 -8.539062 3.75 -8.28125 C 3.21875 -8.019531 2.753906 -7.671875 2.359375 -7.234375 L 2.171875 -7.234375 L 1.046875 -8.921875 C 1.585938 -9.523438 2.242188 -9.992188 3.015625 -10.328125 C 3.796875 -10.660156 4.644531 -10.828125 5.5625 -10.828125 C 6.96875 -10.828125 7.984375 -10.523438 8.609375 -9.921875 C 9.242188 -9.328125 9.5625 -8.484375 9.5625 -7.390625 L 9.5625 -2.765625 C 9.5625 -2.296875 9.769531 -2.0625 10.1875 -2.0625 C 10.34375 -2.0625 10.5 -2.085938 10.65625 -2.140625 L 10.796875 -2.109375 L 10.984375 -0.25 C 10.835938 -0.15625 10.628906 -0.078125 10.359375 -0.015625 C 10.097656 0.046875 9.8125 0.078125 9.5 0.078125 C 8.863281 0.078125 8.367188 -0.0390625 8.015625 -0.28125 C 7.660156 -0.53125 7.40625 -0.914062 7.25 -1.4375 L 7.046875 -1.453125 C 6.523438 -0.347656 5.554688 0.203125 4.140625 0.203125 Z M 4.984375 -1.796875 C 5.597656 -1.796875 6.085938 -2 6.453125 -2.40625 C 6.828125 -2.820312 7.015625 -3.398438 7.015625 -4.140625 L 7.015625 -5.21875 L 6.84375 -5.25 C 6.675781 -5.125 6.460938 -5.015625 6.203125 -4.921875 C 5.941406 -4.835938 5.566406 -4.753906 5.078125 -4.671875 C 4.503906 -4.578125 4.085938 -4.410156 3.828125 -4.171875 C 3.578125 -3.941406 3.453125 -3.613281 3.453125 -3.1875 C 3.453125 -2.726562 3.585938 -2.378906 3.859375 -2.140625 C 4.128906 -1.910156 4.503906 -1.796875 4.984375 -1.796875 Z M 4.984375 -1.796875 "/></g></g></g><g fill="#818caf" fill-opacity="1"><g transform="translate(102.039993, 175.117587)"><g><path d="M 6.1875 0.203125 C 5.164062 0.203125 4.257812 -0.0078125 3.46875 -0.4375 C 2.675781 -0.863281 2.054688 -1.488281 1.609375 -2.3125 C 1.171875 -3.144531 0.953125 -4.144531 0.953125 -5.3125 C 0.953125 -6.476562 1.171875 -7.472656 1.609375 -8.296875 C 2.054688 -9.128906 2.671875 -9.757812 3.453125 -10.1875 C 4.234375 -10.613281 5.128906 -10.828125 6.140625 -10.828125 C 8.378906 -10.828125 9.816406 -10.015625 10.453125 -8.390625 L 8.625 -7.078125 L 8.421875 -7.078125 C 8.203125 -7.578125 7.914062 -7.945312 7.5625 -8.1875 C 7.207031 -8.4375 6.734375 -8.5625 6.140625 -8.5625 C 5.367188 -8.5625 4.769531 -8.296875 4.34375 -7.765625 C 3.914062 -7.234375 3.703125 -6.414062 3.703125 -5.3125 C 3.703125 -4.21875 3.914062 -3.398438 4.34375 -2.859375 C 4.78125 -2.328125 5.394531 -2.0625 6.1875 -2.0625 C 6.769531 -2.0625 7.257812 -2.21875 7.65625 -2.53125 C 8.0625 -2.84375 8.347656 -3.289062 8.515625 -3.875 L 8.71875 -3.890625 L 10.625 -2.84375 C 10.351562 -1.945312 9.851562 -1.210938 9.125 -0.640625 C 8.394531 -0.078125 7.414062 0.203125 6.1875 0.203125 Z M 6.1875 0.203125 "/></g></g></g><g fill="#818caf" fill-opacity="1"><g transform="translate(112.983868, 175.117587)"><g><path d="M 10.5 -4.703125 L 3.671875 -4.6875 C 3.753906 -3.769531 4.015625 -3.101562 4.453125 -2.6875 C 4.898438 -2.269531 5.515625 -2.0625 6.296875 -2.0625 C 6.910156 -2.0625 7.40625 -2.175781 7.78125 -2.40625 C 8.15625 -2.632812 8.457031 -2.976562 8.6875 -3.4375 L 8.890625 -3.4375 L 10.671875 -2.296875 C 10.316406 -1.554688 9.789062 -0.953125 9.09375 -0.484375 C 8.394531 -0.0234375 7.460938 0.203125 6.296875 0.203125 C 5.203125 0.203125 4.253906 -0.00390625 3.453125 -0.421875 C 2.648438 -0.835938 2.03125 -1.457031 1.59375 -2.28125 C 1.164062 -3.113281 0.953125 -4.125 0.953125 -5.3125 C 0.953125 -6.507812 1.179688 -7.519531 1.640625 -8.34375 C 2.097656 -9.175781 2.710938 -9.796875 3.484375 -10.203125 C 4.265625 -10.617188 5.140625 -10.828125 6.109375 -10.828125 C 7.609375 -10.828125 8.753906 -10.425781 9.546875 -9.625 C 10.347656 -8.832031 10.75 -7.664062 10.75 -6.125 C 10.75 -5.5625 10.734375 -5.128906 10.703125 -4.828125 Z M 8.203125 -6.4375 C 8.179688 -7.238281 7.992188 -7.820312 7.640625 -8.1875 C 7.285156 -8.5625 6.773438 -8.75 6.109375 -8.75 C 4.753906 -8.75 3.957031 -7.976562 3.71875 -6.4375 Z M 8.203125 -6.4375 "/></g></g></g><g fill="#818caf" fill-opacity="1"><g transform="translate(124.524507, 175.117587)"><g><path d="M 7.421875 0.203125 C 6.066406 0.203125 5.0625 -0.300781 4.40625 -1.3125 L 4.203125 -1.28125 L 4.203125 0 L 1.53125 0 L 1.53125 -14.890625 L 4.203125 -14.890625 L 4.203125 -9.375 L 4.40625 -9.328125 C 4.769531 -9.835938 5.195312 -10.210938 5.6875 -10.453125 C 6.1875 -10.703125 6.785156 -10.828125 7.484375 -10.828125 C 8.335938 -10.828125 9.085938 -10.625 9.734375 -10.21875 C 10.378906 -9.8125 10.878906 -9.195312 11.234375 -8.375 C 11.597656 -7.550781 11.78125 -6.53125 11.78125 -5.3125 C 11.78125 -4.101562 11.59375 -3.082031 11.21875 -2.25 C 10.84375 -1.425781 10.328125 -0.8125 9.671875 -0.40625 C 9.015625 0 8.265625 0.203125 7.421875 0.203125 Z M 6.609375 -2.0625 C 7.398438 -2.0625 8 -2.320312 8.40625 -2.84375 C 8.8125 -3.363281 9.015625 -4.1875 9.015625 -5.3125 C 9.015625 -6.425781 8.8125 -7.242188 8.40625 -7.765625 C 8 -8.296875 7.398438 -8.5625 6.609375 -8.5625 C 5.859375 -8.5625 5.265625 -8.289062 4.828125 -7.75 C 4.390625 -7.207031 4.171875 -6.394531 4.171875 -5.3125 C 4.171875 -4.21875 4.390625 -3.398438 4.828125 -2.859375 C 5.265625 -2.328125 5.859375 -2.0625 6.609375 -2.0625 Z M 6.609375 -2.0625 "/></g></g></g><g fill="#818caf" fill-opacity="1"><g transform="translate(137.239422, 175.117587)"><g><path d="M 6.171875 0.203125 C 5.128906 0.203125 4.210938 -0.0078125 3.421875 -0.4375 C 2.640625 -0.863281 2.03125 -1.488281 1.59375 -2.3125 C 1.164062 -3.132812 0.953125 -4.132812 0.953125 -5.3125 C 0.953125 -6.476562 1.164062 -7.472656 1.59375 -8.296875 C 2.03125 -9.128906 2.640625 -9.757812 3.421875 -10.1875 C 4.210938 -10.613281 5.128906 -10.828125 6.171875 -10.828125 C 7.210938 -10.828125 8.125 -10.613281 8.90625 -10.1875 C 9.695312 -9.757812 10.3125 -9.128906 10.75 -8.296875 C 11.1875 -7.472656 11.40625 -6.476562 11.40625 -5.3125 C 11.40625 -4.132812 11.1875 -3.132812 10.75 -2.3125 C 10.3125 -1.488281 9.695312 -0.863281 8.90625 -0.4375 C 8.125 -0.0078125 7.210938 0.203125 6.171875 0.203125 Z M 6.171875 -2.0625 C 7.816406 -2.0625 8.640625 -3.144531 8.640625 -5.3125 C 8.640625 -6.425781 8.425781 -7.242188 8 -7.765625 C 7.582031 -8.296875 6.972656 -8.5625 6.171875 -8.5625 C 4.523438 -8.5625 3.703125 -7.476562 3.703125 -5.3125 C 3.703125 -3.144531 4.523438 -2.0625 6.171875 -2.0625 Z M 6.171875 -2.0625 "/></g></g></g><g fill="#818caf" fill-opacity="1"><g transform="translate(149.578947, 175.117587)"><g><path d="M 6.171875 0.203125 C 5.128906 0.203125 4.210938 -0.0078125 3.421875 -0.4375 C 2.640625 -0.863281 2.03125 -1.488281 1.59375 -2.3125 C 1.164062 -3.132812 0.953125 -4.132812 0.953125 -5.3125 C 0.953125 -6.476562 1.164062 -7.472656 1.59375 -8.296875 C 2.03125 -9.128906 2.640625 -9.757812 3.421875 -10.1875 C 4.210938 -10.613281 5.128906 -10.828125 6.171875 -10.828125 C 7.210938 -10.828125 8.125 -10.613281 8.90625 -10.1875 C 9.695312 -9.757812 10.3125 -9.128906 10.75 -8.296875 C 11.1875 -7.472656 11.40625 -6.476562 11.40625 -5.3125 C 11.40625 -4.132812 11.1875 -3.132812 10.75 -2.3125 C 10.3125 -1.488281 9.695312 -0.863281 8.90625 -0.4375 C 8.125 -0.0078125 7.210938 0.203125 6.171875 0.203125 Z M 6.171875 -2.0625 C 7.816406 -2.0625 8.640625 -3.144531 8.640625 -5.3125 C 8.640625 -6.425781 8.425781 -7.242188 8 -7.765625 C 7.582031 -8.296875 6.972656 -8.5625 6.171875 -8.5625 C 4.523438 -8.5625 3.703125 -7.476562 3.703125 -5.3125 C 3.703125 -3.144531 4.523438 -2.0625 6.171875 -2.0625 Z M 6.171875 -2.0625 "/></g></g></g><g fill="#818caf" fill-opacity="1"><g transform="translate(161.918472, 175.117587)"><g><path d="M 4.203125 0 L 1.53125 0 L 1.53125 -14.890625 L 4.203125 -14.890625 L 4.203125 -6.625 L 4.453125 -6.625 L 7.53125 -10.625 L 10.234375 -10.625 L 10.234375 -10.40625 L 6.625 -5.734375 L 10.640625 -0.234375 L 10.640625 0 L 7.828125 0 L 4.453125 -4.484375 L 4.203125 -4.484375 Z M 4.203125 0 "/></g></g></g><g fill="#818caf" fill-opacity="1"><g transform="translate(77.195475, 281.769968)"><g><path d="M 6.71875 0 L 3.609375 0 L 0.390625 -14.078125 L 3.15625 -14.078125 L 5.28125 -4.171875 L 5.53125 -4.171875 L 8.046875 -14.078125 L 10.421875 -14.078125 L 13 -4.171875 L 13.234375 -4.171875 L 15.375 -14.078125 L 18.046875 -14.078125 L 14.84375 0 L 11.71875 0 L 9.25 -9.078125 L 9.046875 -9.078125 Z M 6.71875 0 "/></g></g></g><g fill="#818caf" fill-opacity="1"><g transform="translate(95.618135, 281.769968)"><g><path d="M 1.53125 0 L 1.53125 -14.890625 L 4.203125 -14.890625 L 4.203125 -9.234375 L 4.40625 -9.1875 C 4.757812 -9.707031 5.191406 -10.109375 5.703125 -10.390625 C 6.210938 -10.679688 6.832031 -10.828125 7.5625 -10.828125 C 9.90625 -10.828125 11.078125 -9.5 11.078125 -6.84375 L 11.078125 0 L 8.40625 0 L 8.40625 -6.5 C 8.40625 -7.226562 8.257812 -7.753906 7.96875 -8.078125 C 7.675781 -8.398438 7.226562 -8.5625 6.625 -8.5625 C 5.875 -8.5625 5.28125 -8.3125 4.84375 -7.8125 C 4.414062 -7.320312 4.203125 -6.550781 4.203125 -5.5 L 4.203125 0 Z M 1.53125 0 "/></g></g></g><g fill="#818caf" fill-opacity="1"><g transform="translate(108.053912, 281.769968)"><g><path d="M 4.140625 0.203125 C 3.460938 0.203125 2.875 0.078125 2.375 -0.171875 C 1.875 -0.421875 1.488281 -0.785156 1.21875 -1.265625 C 0.945312 -1.753906 0.8125 -2.335938 0.8125 -3.015625 C 0.8125 -3.648438 0.945312 -4.179688 1.21875 -4.609375 C 1.488281 -5.035156 1.90625 -5.382812 2.46875 -5.65625 C 3.03125 -5.925781 3.765625 -6.132812 4.671875 -6.28125 C 5.304688 -6.382812 5.789062 -6.5 6.125 -6.625 C 6.457031 -6.75 6.679688 -6.882812 6.796875 -7.03125 C 6.910156 -7.1875 6.96875 -7.382812 6.96875 -7.625 C 6.96875 -7.96875 6.847656 -8.226562 6.609375 -8.40625 C 6.378906 -8.582031 5.988281 -8.671875 5.4375 -8.671875 C 4.84375 -8.671875 4.28125 -8.539062 3.75 -8.28125 C 3.21875 -8.019531 2.753906 -7.671875 2.359375 -7.234375 L 2.171875 -7.234375 L 1.046875 -8.921875 C 1.585938 -9.523438 2.242188 -9.992188 3.015625 -10.328125 C 3.796875 -10.660156 4.644531 -10.828125 5.5625 -10.828125 C 6.96875 -10.828125 7.984375 -10.523438 8.609375 -9.921875 C 9.242188 -9.328125 9.5625 -8.484375 9.5625 -7.390625 L 9.5625 -2.765625 C 9.5625 -2.296875 9.769531 -2.0625 10.1875 -2.0625 C 10.34375 -2.0625 10.5 -2.085938 10.65625 -2.140625 L 10.796875 -2.109375 L 10.984375 -0.25 C 10.835938 -0.15625 10.628906 -0.078125 10.359375 -0.015625 C 10.097656 0.046875 9.8125 0.078125 9.5 0.078125 C 8.863281 0.078125 8.367188 -0.0390625 8.015625 -0.28125 C 7.660156 -0.53125 7.40625 -0.914062 7.25 -1.4375 L 7.046875 -1.453125 C 6.523438 -0.347656 5.554688 0.203125 4.140625 0.203125 Z M 4.984375 -1.796875 C 5.597656 -1.796875 6.085938 -2 6.453125 -2.40625 C 6.828125 -2.820312 7.015625 -3.398438 7.015625 -4.140625 L 7.015625 -5.21875 L 6.84375 -5.25 C 6.675781 -5.125 6.460938 -5.015625 6.203125 -4.921875 C 5.941406 -4.835938 5.566406 -4.753906 5.078125 -4.671875 C 4.503906 -4.578125 4.085938 -4.410156 3.828125 -4.171875 C 3.578125 -3.941406 3.453125 -3.613281 3.453125 -3.1875 C 3.453125 -2.726562 3.585938 -2.378906 3.859375 -2.140625 C 4.128906 -1.910156 4.503906 -1.796875 4.984375 -1.796875 Z M 4.984375 -1.796875 "/></g></g></g><g fill="#818caf" fill-opacity="1"><g transform="translate(119.122896, 281.769968)"><g><path d="M 7.328125 -2.53125 L 8.015625 -0.5625 C 7.734375 -0.320312 7.375 -0.132812 6.9375 0 C 6.5 0.132812 6.003906 0.203125 5.453125 0.203125 C 4.296875 0.203125 3.421875 -0.109375 2.828125 -0.734375 C 2.234375 -1.359375 1.9375 -2.269531 1.9375 -3.46875 L 1.9375 -8.5 L 0.3125 -8.5 L 0.3125 -10.625 L 1.9375 -10.625 L 1.9375 -12.703125 L 4.609375 -13.140625 L 4.609375 -10.625 L 7.609375 -10.625 L 7.609375 -8.5 L 4.609375 -8.5 L 4.609375 -3.65625 C 4.609375 -3.132812 4.710938 -2.75 4.921875 -2.5 C 5.140625 -2.257812 5.460938 -2.140625 5.890625 -2.140625 C 6.359375 -2.140625 6.769531 -2.269531 7.125 -2.53125 Z M 7.328125 -2.53125 "/></g></g></g><g fill="#818caf" fill-opacity="1"><g transform="translate(127.371711, 281.769968)"><g><path d="M 4.96875 0.203125 C 4.238281 0.203125 3.570312 0.117188 2.96875 -0.046875 C 2.363281 -0.222656 1.847656 -0.457031 1.421875 -0.75 C 1.003906 -1.050781 0.691406 -1.394531 0.484375 -1.78125 L 1.96875 -3.375 L 2.171875 -3.375 C 2.523438 -2.90625 2.941406 -2.550781 3.421875 -2.3125 C 3.898438 -2.070312 4.421875 -1.953125 4.984375 -1.953125 C 5.503906 -1.953125 5.894531 -2.046875 6.15625 -2.234375 C 6.425781 -2.421875 6.5625 -2.6875 6.5625 -3.03125 C 6.5625 -3.300781 6.460938 -3.523438 6.265625 -3.703125 C 6.078125 -3.890625 5.773438 -4.035156 5.359375 -4.140625 L 3.953125 -4.484375 C 2.898438 -4.734375 2.128906 -5.113281 1.640625 -5.625 C 1.160156 -6.144531 0.921875 -6.800781 0.921875 -7.59375 C 0.921875 -8.257812 1.085938 -8.832031 1.421875 -9.3125 C 1.753906 -9.800781 2.226562 -10.175781 2.84375 -10.4375 C 3.457031 -10.695312 4.171875 -10.828125 4.984375 -10.828125 C 5.941406 -10.828125 6.734375 -10.6875 7.359375 -10.40625 C 7.992188 -10.132812 8.488281 -9.765625 8.84375 -9.296875 L 7.40625 -7.765625 L 7.21875 -7.765625 C 6.925781 -8.097656 6.59375 -8.335938 6.21875 -8.484375 C 5.851562 -8.640625 5.441406 -8.71875 4.984375 -8.71875 C 3.929688 -8.71875 3.40625 -8.390625 3.40625 -7.734375 C 3.40625 -7.460938 3.503906 -7.238281 3.703125 -7.0625 C 3.898438 -6.894531 4.242188 -6.753906 4.734375 -6.640625 L 6.046875 -6.359375 C 7.128906 -6.128906 7.914062 -5.757812 8.40625 -5.25 C 8.90625 -4.738281 9.15625 -4.050781 9.15625 -3.1875 C 9.15625 -2.507812 8.988281 -1.914062 8.65625 -1.40625 C 8.320312 -0.894531 7.835938 -0.5 7.203125 -0.21875 C 6.578125 0.0625 5.832031 0.203125 4.96875 0.203125 Z M 4.96875 0.203125 "/></g></g></g><g fill="#818caf" fill-opacity="1"><g transform="translate(137.160561, 281.769968)"><g><path d="M 4.140625 0.203125 C 3.460938 0.203125 2.875 0.078125 2.375 -0.171875 C 1.875 -0.421875 1.488281 -0.785156 1.21875 -1.265625 C 0.945312 -1.753906 0.8125 -2.335938 0.8125 -3.015625 C 0.8125 -3.648438 0.945312 -4.179688 1.21875 -4.609375 C 1.488281 -5.035156 1.90625 -5.382812 2.46875 -5.65625 C 3.03125 -5.925781 3.765625 -6.132812 4.671875 -6.28125 C 5.304688 -6.382812 5.789062 -6.5 6.125 -6.625 C 6.457031 -6.75 6.679688 -6.882812 6.796875 -7.03125 C 6.910156 -7.1875 6.96875 -7.382812 6.96875 -7.625 C 6.96875 -7.96875 6.847656 -8.226562 6.609375 -8.40625 C 6.378906 -8.582031 5.988281 -8.671875 5.4375 -8.671875 C 4.84375 -8.671875 4.28125 -8.539062 3.75 -8.28125 C 3.21875 -8.019531 2.753906 -7.671875 2.359375 -7.234375 L 2.171875 -7.234375 L 1.046875 -8.921875 C 1.585938 -9.523438 2.242188 -9.992188 3.015625 -10.328125 C 3.796875 -10.660156 4.644531 -10.828125 5.5625 -10.828125 C 6.96875 -10.828125 7.984375 -10.523438 8.609375 -9.921875 C 9.242188 -9.328125 9.5625 -8.484375 9.5625 -7.390625 L 9.5625 -2.765625 C 9.5625 -2.296875 9.769531 -2.0625 10.1875 -2.0625 C 10.34375 -2.0625 10.5 -2.085938 10.65625 -2.140625 L 10.796875 -2.109375 L 10.984375 -0.25 C 10.835938 -0.15625 10.628906 -0.078125 10.359375 -0.015625 C 10.097656 0.046875 9.8125 0.078125 9.5 0.078125 C 8.863281 0.078125 8.367188 -0.0390625 8.015625 -0.28125 C 7.660156 -0.53125 7.40625 -0.914062 7.25 -1.4375 L 7.046875 -1.453125 C 6.523438 -0.347656 5.554688 0.203125 4.140625 0.203125 Z M 4.984375 -1.796875 C 5.597656 -1.796875 6.085938 -2 6.453125 -2.40625 C 6.828125 -2.820312 7.015625 -3.398438 7.015625 -4.140625 L 7.015625 -5.21875 L 6.84375 -5.25 C 6.675781 -5.125 6.460938 -5.015625 6.203125 -4.921875 C 5.941406 -4.835938 5.566406 -4.753906 5.078125 -4.671875 C 4.503906 -4.578125 4.085938 -4.410156 3.828125 -4.171875 C 3.578125 -3.941406 3.453125 -3.613281 3.453125 -3.1875 C 3.453125 -2.726562 3.585938 -2.378906 3.859375 -2.140625 C 4.128906 -1.910156 4.503906 -1.796875 4.984375 -1.796875 Z M 4.984375 -1.796875 "/></g></g></g><g fill="#818caf" fill-opacity="1"><g transform="translate(148.354692, 281.769968)"><g><path d="M 1.53125 4.296875 L 1.53125 -10.625 L 4.203125 -10.625 L 4.203125 -9.234375 L 4.40625 -9.1875 C 4.71875 -9.726562 5.132812 -10.132812 5.65625 -10.40625 C 6.1875 -10.6875 6.804688 -10.828125 7.515625 -10.828125 C 8.367188 -10.828125 9.113281 -10.625 9.75 -10.21875 C 10.382812 -9.8125 10.878906 -9.195312 11.234375 -8.375 C 11.597656 -7.550781 11.78125 -6.53125 11.78125 -5.3125 C 11.78125 -4.09375 11.59375 -3.070312 11.21875 -2.25 C 10.84375 -1.425781 10.316406 -0.8125 9.640625 -0.40625 C 8.972656 0 8.207031 0.203125 7.34375 0.203125 C 6.675781 0.203125 6.101562 0.09375 5.625 -0.125 C 5.144531 -0.351562 4.738281 -0.703125 4.40625 -1.171875 L 4.203125 -1.125 L 4.203125 4.296875 Z M 6.59375 -2.0625 C 7.394531 -2.0625 8 -2.320312 8.40625 -2.84375 C 8.8125 -3.363281 9.015625 -4.1875 9.015625 -5.3125 C 9.015625 -6.425781 8.8125 -7.242188 8.40625 -7.765625 C 8 -8.296875 7.394531 -8.5625 6.59375 -8.5625 C 5.851562 -8.5625 5.265625 -8.289062 4.828125 -7.75 C 4.390625 -7.207031 4.171875 -6.394531 4.171875 -5.3125 C 4.171875 -4.21875 4.390625 -3.398438 4.828125 -2.859375 C 5.265625 -2.328125 5.851562 -2.0625 6.59375 -2.0625 Z M 6.59375 -2.0625 "/></g></g></g><g fill="#818caf" fill-opacity="1"><g transform="translate(161.069607, 281.769968)"><g><path d="M 1.53125 4.296875 L 1.53125 -10.625 L 4.203125 -10.625 L 4.203125 -9.234375 L 4.40625 -9.1875 C 4.71875 -9.726562 5.132812 -10.132812 5.65625 -10.40625 C 6.1875 -10.6875 6.804688 -10.828125 7.515625 -10.828125 C 8.367188 -10.828125 9.113281 -10.625 9.75 -10.21875 C 10.382812 -9.8125 10.878906 -9.195312 11.234375 -8.375 C 11.597656 -7.550781 11.78125 -6.53125 11.78125 -5.3125 C 11.78125 -4.09375 11.59375 -3.070312 11.21875 -2.25 C 10.84375 -1.425781 10.316406 -0.8125 9.640625 -0.40625 C 8.972656 0 8.207031 0.203125 7.34375 0.203125 C 6.675781 0.203125 6.101562 0.09375 5.625 -0.125 C 5.144531 -0.351562 4.738281 -0.703125 4.40625 -1.171875 L 4.203125 -1.125 L 4.203125 4.296875 Z M 6.59375 -2.0625 C 7.394531 -2.0625 8 -2.320312 8.40625 -2.84375 C 8.8125 -3.363281 9.015625 -4.1875 9.015625 -5.3125 C 9.015625 -6.425781 8.8125 -7.242188 8.40625 -7.765625 C 8 -8.296875 7.394531 -8.5625 6.59375 -8.5625 C 5.851562 -8.5625 5.265625 -8.289062 4.828125 -7.75 C 4.390625 -7.207031 4.171875 -6.394531 4.171875 -5.3125 C 4.171875 -4.21875 4.390625 -3.398438 4.828125 -2.859375 C 5.265625 -2.328125 5.851562 -2.0625 6.59375 -2.0625 Z M 6.59375 -2.0625 "/></g></g></g><g fill="#818caf" fill-opacity="1"><g transform="translate(111.364595, 388.422426)"><g><path d="M 11.28125 -14.078125 L 11.28125 -11.734375 L 7.21875 -11.734375 L 7.21875 0 L 4.453125 0 L 4.453125 -11.734375 L 0.390625 -11.734375 L 0.390625 -14.078125 Z M 11.28125 -14.078125 "/></g></g></g><g fill="#818caf" fill-opacity="1"><g transform="translate(122.789692, 388.422426)"><g><path d="M 2.859375 -11.890625 C 2.378906 -11.890625 1.988281 -12.035156 1.6875 -12.328125 C 1.382812 -12.617188 1.234375 -12.992188 1.234375 -13.453125 C 1.234375 -13.910156 1.382812 -14.285156 1.6875 -14.578125 C 1.988281 -14.867188 2.378906 -15.015625 2.859375 -15.015625 C 3.179688 -15.015625 3.46875 -14.945312 3.71875 -14.8125 C 3.96875 -14.675781 4.160156 -14.488281 4.296875 -14.25 C 4.429688 -14.019531 4.5 -13.753906 4.5 -13.453125 C 4.5 -13.160156 4.429688 -12.894531 4.296875 -12.65625 C 4.160156 -12.414062 3.96875 -12.226562 3.71875 -12.09375 C 3.46875 -11.957031 3.179688 -11.890625 2.859375 -11.890625 Z M 4.203125 0 L 1.53125 0 L 1.53125 -10.625 L 4.203125 -10.625 Z M 4.203125 0 "/></g></g></g><g fill="#818caf" fill-opacity="1"><g transform="translate(128.507069, 388.422426)"><g><path d="M 4.203125 0 L 1.53125 0 L 1.53125 -14.890625 L 4.203125 -14.890625 L 4.203125 -6.625 L 4.453125 -6.625 L 7.53125 -10.625 L 10.234375 -10.625 L 10.234375 -10.40625 L 6.625 -5.734375 L 10.640625 -0.234375 L 10.640625 0 L 7.828125 0 L 4.453125 -4.484375 L 4.203125 -4.484375 Z M 4.203125 0 "/></g></g></g><g fill="#818caf" fill-opacity="1"><g transform="translate(139.162188, 388.422426)"><g><path d="M 11.28125 -14.078125 L 11.28125 -11.734375 L 7.21875 -11.734375 L 7.21875 0 L 4.453125 0 L 4.453125 -11.734375 L 0.390625 -11.734375 L 0.390625 -14.078125 Z M 11.28125 -14.078125 "/></g></g></g><g fill="#818caf" fill-opacity="1"><g transform="translate(149.460983, 388.422426)"><g><path d="M 6.171875 0.203125 C 5.128906 0.203125 4.210938 -0.0078125 3.421875 -0.4375 C 2.640625 -0.863281 2.03125 -1.488281 1.59375 -2.3125 C 1.164062 -3.132812 0.953125 -4.132812 0.953125 -5.3125 C 0.953125 -6.476562 1.164062 -7.472656 1.59375 -8.296875 C 2.03125 -9.128906 2.640625 -9.757812 3.421875 -10.1875 C 4.210938 -10.613281 5.128906 -10.828125 6.171875 -10.828125 C 7.210938 -10.828125 8.125 -10.613281 8.90625 -10.1875 C 9.695312 -9.757812 10.3125 -9.128906 10.75 -8.296875 C 11.1875 -7.472656 11.40625 -6.476562 11.40625 -5.3125 C 11.40625 -4.132812 11.1875 -3.132812 10.75 -2.3125 C 10.3125 -1.488281 9.695312 -0.863281 8.90625 -0.4375 C 8.125 -0.0078125 7.210938 0.203125 6.171875 0.203125 Z M 6.171875 -2.0625 C 7.816406 -2.0625 8.640625 -3.144531 8.640625 -5.3125 C 8.640625 -6.425781 8.425781 -7.242188 8 -7.765625 C 7.582031 -8.296875 6.972656 -8.5625 6.171875 -8.5625 C 4.523438 -8.5625 3.703125 -7.476562 3.703125 -5.3125 C 3.703125 -3.144531 4.523438 -2.0625 6.171875 -2.0625 Z M 6.171875 -2.0625 "/></g></g></g><g fill="#818caf" fill-opacity="1"><g transform="translate(161.800507, 388.422426)"><g><path d="M 4.203125 0 L 1.53125 0 L 1.53125 -14.890625 L 4.203125 -14.890625 L 4.203125 -6.625 L 4.453125 -6.625 L 7.53125 -10.625 L 10.234375 -10.625 L 10.234375 -10.40625 L 6.625 -5.734375 L 10.640625 -0.234375 L 10.640625 0 L 7.828125 0 L 4.453125 -4.484375 L 4.203125 -4.484375 Z M 4.203125 0 "/></g></g></g><g fill="#818caf" fill-opacity="1"><g transform="translate(77.925064, 495.074831)"><g><path d="M 4.609375 0 L 1.828125 0 L 1.828125 -14.078125 L 4.609375 -14.078125 Z M 4.609375 0 "/></g></g></g><g fill="#818caf" fill-opacity="1"><g transform="translate(84.373957, 495.074831)"><g><path d="M 1.53125 0 L 1.53125 -10.625 L 4.09375 -10.625 L 4.09375 -9.0625 L 4.296875 -9.015625 C 4.953125 -10.222656 6.023438 -10.828125 7.515625 -10.828125 C 8.734375 -10.828125 9.628906 -10.488281 10.203125 -9.8125 C 10.785156 -9.144531 11.078125 -8.175781 11.078125 -6.90625 L 11.078125 0 L 8.40625 0 L 8.40625 -6.578125 C 8.40625 -7.285156 8.265625 -7.789062 7.984375 -8.09375 C 7.703125 -8.40625 7.25 -8.5625 6.625 -8.5625 C 5.863281 -8.5625 5.269531 -8.316406 4.84375 -7.828125 C 4.414062 -7.335938 4.203125 -6.5625 4.203125 -5.5 L 4.203125 0 Z M 1.53125 0 "/></g></g></g><g fill="#818caf" fill-opacity="1"><g transform="translate(96.809734, 495.074831)"><g><path d="M 4.96875 0.203125 C 4.238281 0.203125 3.570312 0.117188 2.96875 -0.046875 C 2.363281 -0.222656 1.847656 -0.457031 1.421875 -0.75 C 1.003906 -1.050781 0.691406 -1.394531 0.484375 -1.78125 L 1.96875 -3.375 L 2.171875 -3.375 C 2.523438 -2.90625 2.941406 -2.550781 3.421875 -2.3125 C 3.898438 -2.070312 4.421875 -1.953125 4.984375 -1.953125 C 5.503906 -1.953125 5.894531 -2.046875 6.15625 -2.234375 C 6.425781 -2.421875 6.5625 -2.6875 6.5625 -3.03125 C 6.5625 -3.300781 6.460938 -3.523438 6.265625 -3.703125 C 6.078125 -3.890625 5.773438 -4.035156 5.359375 -4.140625 L 3.953125 -4.484375 C 2.898438 -4.734375 2.128906 -5.113281 1.640625 -5.625 C 1.160156 -6.144531 0.921875 -6.800781 0.921875 -7.59375 C 0.921875 -8.257812 1.085938 -8.832031 1.421875 -9.3125 C 1.753906 -9.800781 2.226562 -10.175781 2.84375 -10.4375 C 3.457031 -10.695312 4.171875 -10.828125 4.984375 -10.828125 C 5.941406 -10.828125 6.734375 -10.6875 7.359375 -10.40625 C 7.992188 -10.132812 8.488281 -9.765625 8.84375 -9.296875 L 7.40625 -7.765625 L 7.21875 -7.765625 C 6.925781 -8.097656 6.59375 -8.335938 6.21875 -8.484375 C 5.851562 -8.640625 5.441406 -8.71875 4.984375 -8.71875 C 3.929688 -8.71875 3.40625 -8.390625 3.40625 -7.734375 C 3.40625 -7.460938 3.503906 -7.238281 3.703125 -7.0625 C 3.898438 -6.894531 4.242188 -6.753906 4.734375 -6.640625 L 6.046875 -6.359375 C 7.128906 -6.128906 7.914062 -5.757812 8.40625 -5.25 C 8.90625 -4.738281 9.15625 -4.050781 9.15625 -3.1875 C 9.15625 -2.507812 8.988281 -1.914062 8.65625 -1.40625 C 8.320312 -0.894531 7.835938 -0.5 7.203125 -0.21875 C 6.578125 0.0625 5.832031 0.203125 4.96875 0.203125 Z M 4.96875 0.203125 "/></g></g></g><g fill="#818caf" fill-opacity="1"><g transform="translate(106.598584, 495.074831)"><g><path d="M 7.328125 -2.53125 L 8.015625 -0.5625 C 7.734375 -0.320312 7.375 -0.132812 6.9375 0 C 6.5 0.132812 6.003906 0.203125 5.453125 0.203125 C 4.296875 0.203125 3.421875 -0.109375 2.828125 -0.734375 C 2.234375 -1.359375 1.9375 -2.269531 1.9375 -3.46875 L 1.9375 -8.5 L 0.3125 -8.5 L 0.3125 -10.625 L 1.9375 -10.625 L 1.9375 -12.703125 L 4.609375 -13.140625 L 4.609375 -10.625 L 7.609375 -10.625 L 7.609375 -8.5 L 4.609375 -8.5 L 4.609375 -3.65625 C 4.609375 -3.132812 4.710938 -2.75 4.921875 -2.5 C 5.140625 -2.257812 5.460938 -2.140625 5.890625 -2.140625 C 6.359375 -2.140625 6.769531 -2.269531 7.125 -2.53125 Z M 7.328125 -2.53125 "/></g></g></g><g fill="#818caf" fill-opacity="1"><g transform="translate(114.8474, 495.074831)"><g><path d="M 4.140625 0.203125 C 3.460938 0.203125 2.875 0.078125 2.375 -0.171875 C 1.875 -0.421875 1.488281 -0.785156 1.21875 -1.265625 C 0.945312 -1.753906 0.8125 -2.335938 0.8125 -3.015625 C 0.8125 -3.648438 0.945312 -4.179688 1.21875 -4.609375 C 1.488281 -5.035156 1.90625 -5.382812 2.46875 -5.65625 C 3.03125 -5.925781 3.765625 -6.132812 4.671875 -6.28125 C 5.304688 -6.382812 5.789062 -6.5 6.125 -6.625 C 6.457031 -6.75 6.679688 -6.882812 6.796875 -7.03125 C 6.910156 -7.1875 6.96875 -7.382812 6.96875 -7.625 C 6.96875 -7.96875 6.847656 -8.226562 6.609375 -8.40625 C 6.378906 -8.582031 5.988281 -8.671875 5.4375 -8.671875 C 4.84375 -8.671875 4.28125 -8.539062 3.75 -8.28125 C 3.21875 -8.019531 2.753906 -7.671875 2.359375 -7.234375 L 2.171875 -7.234375 L 1.046875 -8.921875 C 1.585938 -9.523438 2.242188 -9.992188 3.015625 -10.328125 C 3.796875 -10.660156 4.644531 -10.828125 5.5625 -10.828125 C 6.96875 -10.828125 7.984375 -10.523438 8.609375 -9.921875 C 9.242188 -9.328125 9.5625 -8.484375 9.5625 -7.390625 L 9.5625 -2.765625 C 9.5625 -2.296875 9.769531 -2.0625 10.1875 -2.0625 C 10.34375 -2.0625 10.5 -2.085938 10.65625 -2.140625 L 10.796875 -2.109375 L 10.984375 -0.25 C 10.835938 -0.15625 10.628906 -0.078125 10.359375 -0.015625 C 10.097656 0.046875 9.8125 0.078125 9.5 0.078125 C 8.863281 0.078125 8.367188 -0.0390625 8.015625 -0.28125 C 7.660156 -0.53125 7.40625 -0.914062 7.25 -1.4375 L 7.046875 -1.453125 C 6.523438 -0.347656 5.554688 0.203125 4.140625 0.203125 Z M 4.984375 -1.796875 C 5.597656 -1.796875 6.085938 -2 6.453125 -2.40625 C 6.828125 -2.820312 7.015625 -3.398438 7.015625 -4.140625 L 7.015625 -5.21875 L 6.84375 -5.25 C 6.675781 -5.125 6.460938 -5.015625 6.203125 -4.921875 C 5.941406 -4.835938 5.566406 -4.753906 5.078125 -4.671875 C 4.503906 -4.578125 4.085938 -4.410156 3.828125 -4.171875 C 3.578125 -3.941406 3.453125 -3.613281 3.453125 -3.1875 C 3.453125 -2.726562 3.585938 -2.378906 3.859375 -2.140625 C 4.128906 -1.910156 4.503906 -1.796875 4.984375 -1.796875 Z M 4.984375 -1.796875 "/></g></g></g><g fill="#818caf" fill-opacity="1"><g transform="translate(126.04153, 495.074831)"><g><path d="M 5.5 4.5 C 3.75 4.5 2.457031 4.242188 1.625 3.734375 C 0.789062 3.222656 0.375 2.507812 0.375 1.59375 C 0.375 1.03125 0.550781 0.570312 0.90625 0.21875 C 1.257812 -0.132812 1.773438 -0.375 2.453125 -0.5 L 2.453125 -0.703125 C 2.085938 -0.921875 1.828125 -1.160156 1.671875 -1.421875 C 1.515625 -1.691406 1.4375 -2.003906 1.4375 -2.359375 C 1.4375 -3.210938 1.988281 -3.785156 3.09375 -4.078125 L 3.09375 -4.28125 C 2.53125 -4.613281 2.101562 -5.019531 1.8125 -5.5 C 1.519531 -5.988281 1.375 -6.578125 1.375 -7.265625 C 1.375 -7.960938 1.535156 -8.578125 1.859375 -9.109375 C 2.179688 -9.648438 2.65625 -10.070312 3.28125 -10.375 C 3.914062 -10.675781 4.664062 -10.828125 5.53125 -10.828125 C 6.414062 -10.828125 7.125 -10.671875 7.65625 -10.359375 C 7.976562 -10.835938 8.164062 -11.382812 8.21875 -12 L 8.421875 -12.125 L 10.34375 -11.65625 C 10.28125 -11.15625 10.128906 -10.734375 9.890625 -10.390625 C 9.660156 -10.046875 9.296875 -9.738281 8.796875 -9.46875 L 8.796875 -9.25 C 9.390625 -8.726562 9.6875 -7.992188 9.6875 -7.046875 C 9.6875 -6.390625 9.519531 -5.800781 9.1875 -5.28125 C 8.863281 -4.757812 8.390625 -4.347656 7.765625 -4.046875 C 7.140625 -3.742188 6.394531 -3.59375 5.53125 -3.59375 L 5.125 -3.609375 C 4.875 -3.617188 4.695312 -3.625 4.59375 -3.625 C 4.351562 -3.625 4.160156 -3.554688 4.015625 -3.421875 C 3.878906 -3.296875 3.8125 -3.128906 3.8125 -2.921875 C 3.8125 -2.703125 3.898438 -2.53125 4.078125 -2.40625 C 4.265625 -2.28125 4.53125 -2.207031 4.875 -2.1875 L 7.25 -2.109375 C 9.601562 -2.035156 10.78125 -1.023438 10.78125 0.921875 C 10.78125 1.609375 10.601562 2.21875 10.25 2.75 C 9.894531 3.289062 9.328125 3.71875 8.546875 4.03125 C 7.765625 4.34375 6.75 4.5 5.5 4.5 Z M 5.53125 -5.46875 C 6.050781 -5.46875 6.453125 -5.617188 6.734375 -5.921875 C 7.023438 -6.222656 7.171875 -6.65625 7.171875 -7.21875 C 7.171875 -7.769531 7.023438 -8.191406 6.734375 -8.484375 C 6.453125 -8.785156 6.050781 -8.9375 5.53125 -8.9375 C 5.007812 -8.9375 4.609375 -8.785156 4.328125 -8.484375 C 4.046875 -8.191406 3.90625 -7.769531 3.90625 -7.21875 C 3.90625 -6.644531 4.046875 -6.207031 4.328125 -5.90625 C 4.609375 -5.613281 5.007812 -5.46875 5.53125 -5.46875 Z M 5.5 2.578125 C 6.414062 2.578125 7.078125 2.445312 7.484375 2.1875 C 7.898438 1.925781 8.109375 1.59375 8.109375 1.1875 C 8.109375 0.851562 8.003906 0.609375 7.796875 0.453125 C 7.585938 0.296875 7.25 0.207031 6.78125 0.1875 L 4.6875 0.09375 C 4.613281 0.09375 4.546875 0.0859375 4.484375 0.078125 C 4.429688 0.078125 4.375 0.078125 4.3125 0.078125 C 3.863281 0.078125 3.519531 0.171875 3.28125 0.359375 C 3.050781 0.554688 2.9375 0.828125 2.9375 1.171875 C 2.9375 1.617188 3.148438 1.960938 3.578125 2.203125 C 4.015625 2.453125 4.65625 2.578125 5.5 2.578125 Z M 5.5 2.578125 "/></g></g></g><g fill="#818caf" fill-opacity="1"><g transform="translate(137.081658, 495.074831)"><g><path d="M 1.53125 0 L 1.53125 -10.625 L 4.125 -10.625 L 4.125 -9.046875 L 4.328125 -9 C 4.578125 -9.59375 4.910156 -10.023438 5.328125 -10.296875 C 5.742188 -10.578125 6.253906 -10.71875 6.859375 -10.71875 C 7.460938 -10.71875 7.921875 -10.613281 8.234375 -10.40625 L 7.78125 -8.109375 L 7.578125 -8.0625 C 7.398438 -8.132812 7.234375 -8.1875 7.078125 -8.21875 C 6.921875 -8.25 6.722656 -8.265625 6.484375 -8.265625 C 5.742188 -8.265625 5.175781 -8.003906 4.78125 -7.484375 C 4.394531 -6.960938 4.203125 -6.125 4.203125 -4.96875 L 4.203125 0 Z M 1.53125 0 "/></g></g></g><g fill="#818caf" fill-opacity="1"><g transform="translate(145.205313, 495.074831)"><g><path d="M 4.140625 0.203125 C 3.460938 0.203125 2.875 0.078125 2.375 -0.171875 C 1.875 -0.421875 1.488281 -0.785156 1.21875 -1.265625 C 0.945312 -1.753906 0.8125 -2.335938 0.8125 -3.015625 C 0.8125 -3.648438 0.945312 -4.179688 1.21875 -4.609375 C 1.488281 -5.035156 1.90625 -5.382812 2.46875 -5.65625 C 3.03125 -5.925781 3.765625 -6.132812 4.671875 -6.28125 C 5.304688 -6.382812 5.789062 -6.5 6.125 -6.625 C 6.457031 -6.75 6.679688 -6.882812 6.796875 -7.03125 C 6.910156 -7.1875 6.96875 -7.382812 6.96875 -7.625 C 6.96875 -7.96875 6.847656 -8.226562 6.609375 -8.40625 C 6.378906 -8.582031 5.988281 -8.671875 5.4375 -8.671875 C 4.84375 -8.671875 4.28125 -8.539062 3.75 -8.28125 C 3.21875 -8.019531 2.753906 -7.671875 2.359375 -7.234375 L 2.171875 -7.234375 L 1.046875 -8.921875 C 1.585938 -9.523438 2.242188 -9.992188 3.015625 -10.328125 C 3.796875 -10.660156 4.644531 -10.828125 5.5625 -10.828125 C 6.96875 -10.828125 7.984375 -10.523438 8.609375 -9.921875 C 9.242188 -9.328125 9.5625 -8.484375 9.5625 -7.390625 L 9.5625 -2.765625 C 9.5625 -2.296875 9.769531 -2.0625 10.1875 -2.0625 C 10.34375 -2.0625 10.5 -2.085938 10.65625 -2.140625 L 10.796875 -2.109375 L 10.984375 -0.25 C 10.835938 -0.15625 10.628906 -0.078125 10.359375 -0.015625 C 10.097656 0.046875 9.8125 0.078125 9.5 0.078125 C 8.863281 0.078125 8.367188 -0.0390625 8.015625 -0.28125 C 7.660156 -0.53125 7.40625 -0.914062 7.25 -1.4375 L 7.046875 -1.453125 C 6.523438 -0.347656 5.554688 0.203125 4.140625 0.203125 Z M 4.984375 -1.796875 C 5.597656 -1.796875 6.085938 -2 6.453125 -2.40625 C 6.828125 -2.820312 7.015625 -3.398438 7.015625 -4.140625 L 7.015625 -5.21875 L 6.84375 -5.25 C 6.675781 -5.125 6.460938 -5.015625 6.203125 -4.921875 C 5.941406 -4.835938 5.566406 -4.753906 5.078125 -4.671875 C 4.503906 -4.578125 4.085938 -4.410156 3.828125 -4.171875 C 3.578125 -3.941406 3.453125 -3.613281 3.453125 -3.1875 C 3.453125 -2.726562 3.585938 -2.378906 3.859375 -2.140625 C 4.128906 -1.910156 4.503906 -1.796875 4.984375 -1.796875 Z M 4.984375 -1.796875 "/></g></g></g><g fill="#818caf" fill-opacity="1"><g transform="translate(156.399444, 495.074831)"><g><path d="M 1.53125 0 L 1.53125 -10.625 L 4.09375 -10.625 L 4.09375 -9.1875 L 4.296875 -9.15625 C 4.640625 -9.726562 5.039062 -10.148438 5.5 -10.421875 C 5.96875 -10.691406 6.566406 -10.828125 7.296875 -10.828125 C 8.097656 -10.828125 8.742188 -10.664062 9.234375 -10.34375 C 9.722656 -10.03125 10.078125 -9.566406 10.296875 -8.953125 L 10.5 -8.953125 C 10.832031 -9.585938 11.253906 -10.054688 11.765625 -10.359375 C 12.285156 -10.671875 12.929688 -10.828125 13.703125 -10.828125 C 15.898438 -10.828125 17 -9.597656 17 -7.140625 L 17 0 L 14.34375 0 L 14.34375 -6.8125 C 14.34375 -7.425781 14.21875 -7.867188 13.96875 -8.140625 C 13.726562 -8.421875 13.335938 -8.5625 12.796875 -8.5625 C 11.328125 -8.5625 10.59375 -7.582031 10.59375 -5.625 L 10.59375 0 L 7.9375 0 L 7.9375 -6.8125 C 7.9375 -7.425781 7.8125 -7.867188 7.5625 -8.140625 C 7.3125 -8.421875 6.921875 -8.5625 6.390625 -8.5625 C 5.703125 -8.5625 5.164062 -8.332031 4.78125 -7.875 C 4.394531 -7.414062 4.203125 -6.6875 4.203125 -5.6875 L 4.203125 0 Z M 1.53125 0 "/></g></g></g><path stroke-linecap="butt" transform="matrix(0.864699, 0, 0, 0.864699, 188.413235, 27.116088)" fill="none" stroke-linejoin="miter" d="M 0.000956576 576.0009 L 0.000956576 0.00127192 " stroke="#818caf" stroke-width="1" stroke-opacity="0.6" stroke-miterlimit="4"/><path stroke-linecap="butt" transform="matrix(0.864699, 0, 0, 0.864699, 188.413235, 27.116088)" fill="none" stroke-linejoin="miter" d="M 81.595445 576.0009 L 81.595445 0.00127192 " stroke="#818caf" stroke-width="1" stroke-opacity="0.251" stroke-miterlimit="4"/><path stroke-linecap="butt" transform="matrix(0.864699, 0, 0, 0.864699, 188.413235, 27.116088)" fill="none" stroke-linejoin="miter" d="M 163.194452 576.0009 L 163.194452 0.00127192 " stroke="#818caf" stroke-width="1" stroke-opacity="0.251" stroke-miterlimit="4"/><path stroke-linecap="butt" transform="matrix(0.864699, 0, 0, 0.864699, 188.413235, 27.116088)" fill="none" stroke-linejoin="miter" d="M 244.78894 576.0009 L 244.78894 0.00127192 " stroke="#818caf" stroke-width="1" stroke-opacity="0.251" stroke-miterlimit="4"/><path stroke-linecap="butt" transform="matrix(0.864699, 0, 0, 0.864699, 188.413235, 27.116088)" fill="none" stroke-linejoin="miter" d="M 326.387946 576.0009 L 326.387946 0.00127192 " stroke="#818caf" stroke-width="1" stroke-opacity="0.251" stroke-miterlimit="4"/><path stroke-linecap="butt" transform="matrix(0.864699, 0, 0, 0.864699, 188.413235, 27.116088)" fill="none" stroke-linejoin="miter" d="M 407.982435 576.0009 L 407.982435 0.00127192 " stroke="#818caf" stroke-width="1" stroke-opacity="0.251" stroke-miterlimit="4"/><path stroke-linecap="butt" transform="matrix(0.864699, 0, 0, 0.864699, 188.413235, 27.116088)" fill="none" stroke-linejoin="miter" d="M 489.576924 576.0009 L 489.576924 0.00127192 " stroke="#818caf" stroke-width="1" stroke-opacity="0.251" stroke-miterlimit="4"/><path stroke-linecap="butt" transform="matrix(0.864699, 0, 0, 0.864699, 188.413235, 27.116088)" fill="none" stroke-linejoin="miter" d="M 571.17593 576.0009 L 571.17593 0.00127192 " stroke="#818caf" stroke-width="1" stroke-opacity="0.251" stroke-miterlimit="4"/><g clip-path="url(#017ed87361)"><path fill="#fa8080" d="M 188.414062 27.117188 L 210.113281 27.117188 C 211.007812 27.117188 211.890625 27.203125 212.761719 27.378906 C 213.636719 27.550781 214.488281 27.808594 215.308594 28.148438 C 216.132812 28.492188 216.917969 28.910156 217.65625 29.402344 C 218.398438 29.898438 219.085938 30.460938 219.714844 31.09375 C 220.34375 31.722656 220.90625 32.410156 221.402344 33.148438 C 221.898438 33.890625 222.316406 34.671875 222.65625 35.496094 C 223 36.320312 223.257812 37.167969 223.429688 38.042969 C 223.605469 38.917969 223.691406 39.800781 223.691406 40.691406 L 223.691406 84.996094 C 223.691406 85.886719 223.605469 86.769531 223.429688 87.644531 C 223.257812 88.519531 223 89.367188 222.65625 90.191406 C 222.316406 91.015625 221.898438 91.796875 221.402344 92.539062 C 220.90625 93.28125 220.34375 93.964844 219.714844 94.597656 C 219.085938 95.226562 218.398438 95.789062 217.65625 96.285156 C 216.917969 96.78125 216.132812 97.199219 215.308594 97.539062 C 214.488281 97.882812 213.636719 98.136719 212.761719 98.3125 C 211.890625 98.484375 211.007812 98.574219 210.113281 98.574219 L 188.414062 98.574219 C 187.523438 98.574219 186.640625 98.484375 185.765625 98.3125 C 184.890625 98.136719 184.042969 97.882812 183.21875 97.539062 C 182.394531 97.199219 181.613281 96.78125 180.871094 96.285156 C 180.128906 95.789062 179.441406 95.226562 178.8125 94.597656 C 178.183594 93.964844 177.621094 93.28125 177.125 92.539062 C 176.628906 91.796875 176.210938 91.015625 175.871094 90.191406 C 175.527344 89.367188 175.269531 88.519531 175.097656 87.644531 C 174.921875 86.769531 174.835938 85.886719 174.835938 84.996094 L 174.835938 40.691406 C 174.835938 39.800781 174.921875 38.917969 175.097656 38.042969 C 175.269531 37.167969 175.527344 36.320312 175.871094 35.496094 C 176.210938 34.671875 176.628906 33.890625 177.125 33.148438 C 177.621094 32.410156 178.183594 31.722656 178.8125 31.09375 C 179.441406 30.460938 180.128906 29.898438 180.871094 29.402344 C 181.613281 28.910156 182.394531 28.492188 183.21875 28.148438 C 184.042969 27.808594 184.890625 27.550781 185.765625 27.378906 C 186.640625 27.203125 187.523438 27.117188 188.414062 27.117188 Z M 188.414062 27.117188 " fill-opacity="1" fill-rule="nonzero"/></g><g clip-path="url(#5d54580385)"><path fill="#fa8080" d="M 188.414062 133.769531 L 210.113281 133.769531 C 211.007812 133.769531 211.890625 133.855469 212.761719 134.03125 C 213.636719 134.203125 214.488281 134.460938 215.308594 134.800781 C 216.132812 135.144531 216.917969 135.5625 217.65625 136.054688 C 218.398438 136.550781 219.085938 137.113281 219.714844 137.746094 C 220.34375 138.375 220.90625 139.0625 221.402344 139.800781 C 221.898438 140.542969 222.316406 141.324219 222.65625 142.148438 C 223 142.972656 223.257812 143.824219 223.429688 144.695312 C 223.605469 145.570312 223.691406 146.453125 223.691406 147.34375 L 223.691406 191.648438 C 223.691406 192.539062 223.605469 193.421875 223.429688 194.296875 C 223.257812 195.171875 223 196.019531 222.65625 196.84375 C 222.316406 197.667969 221.898438 198.449219 221.402344 199.191406 C 220.90625 199.933594 220.34375 200.617188 219.714844 201.25 C 219.085938 201.878906 218.398438 202.441406 217.65625 202.9375 C 216.917969 203.433594 216.132812 203.851562 215.308594 204.191406 C 214.488281 204.535156 213.636719 204.789062 212.761719 204.964844 C 211.890625 205.136719 211.007812 205.226562 210.113281 205.226562 L 188.414062 205.226562 C 187.523438 205.226562 186.640625 205.136719 185.765625 204.964844 C 184.890625 204.789062 184.042969 204.535156 183.21875 204.191406 C 182.394531 203.851562 181.613281 203.433594 180.871094 202.9375 C 180.128906 202.441406 179.441406 201.878906 178.8125 201.25 C 178.183594 200.617188 177.621094 199.933594 177.125 199.191406 C 176.628906 198.449219 176.210938 197.667969 175.871094 196.84375 C 175.527344 196.019531 175.269531 195.171875 175.097656 194.296875 C 174.921875 193.421875 174.835938 192.539062 174.835938 191.648438 L 174.835938 147.34375 C 174.835938 146.453125 174.921875 145.570312 175.097656 144.695312 C 175.269531 143.824219 175.527344 142.972656 175.871094 142.148438 C 176.210938 141.324219 176.628906 140.542969 177.125 139.800781 C 177.621094 139.0625 178.183594 138.375 178.8125 137.746094 C 179.441406 137.113281 180.128906 136.550781 180.871094 136.054688 C 181.613281 135.5625 182.394531 135.144531 183.21875 134.800781 C 184.042969 134.460938 184.890625 134.203125 185.765625 134.03125 C 186.640625 133.855469 187.523438 133.769531 188.414062 133.769531 Z M 188.414062 133.769531 " fill-opacity="1" fill-rule="nonzero"/></g><g clip-path="url(#61cf1413ea)"><path fill="#fa8080" d="M 188.414062 240.421875 L 245.394531 240.421875 C 246.285156 240.421875 247.167969 240.507812 248.042969 240.683594 C 248.914062 240.855469 249.765625 241.113281 250.589844 241.453125 C 251.410156 241.796875 252.195312 242.214844 252.9375 242.707031 C 253.675781 243.203125 254.363281 243.765625 254.992188 244.398438 C 255.625 245.027344 256.1875 245.714844 256.679688 246.453125 C 257.175781 247.195312 257.59375 247.976562 257.9375 248.800781 C 258.277344 249.625 258.535156 250.476562 258.707031 251.347656 C 258.882812 252.222656 258.96875 253.105469 258.96875 253.996094 L 258.96875 298.300781 C 258.96875 299.191406 258.882812 300.074219 258.707031 300.949219 C 258.535156 301.824219 258.277344 302.671875 257.9375 303.496094 C 257.59375 304.320312 257.175781 305.101562 256.679688 305.84375 C 256.1875 306.585938 255.625 307.269531 254.992188 307.902344 C 254.363281 308.53125 253.675781 309.09375 252.9375 309.589844 C 252.195312 310.085938 251.410156 310.503906 250.589844 310.84375 C 249.765625 311.1875 248.914062 311.441406 248.042969 311.617188 C 247.167969 311.792969 246.285156 311.878906 245.394531 311.878906 L 188.414062 311.878906 C 187.523438 311.878906 186.640625 311.792969 185.765625 311.617188 C 184.890625 311.441406 184.042969 311.1875 183.21875 310.84375 C 182.394531 310.503906 181.613281 310.085938 180.871094 309.589844 C 180.128906 309.09375 179.441406 308.53125 178.8125 307.902344 C 178.183594 307.269531 177.621094 306.585938 177.125 305.84375 C 176.628906 305.101562 176.210938 304.320312 175.871094 303.496094 C 175.527344 302.671875 175.269531 301.824219 175.097656 300.949219 C 174.921875 300.074219 174.835938 299.191406 174.835938 298.300781 L 174.835938 253.996094 C 174.835938 253.105469 174.921875 252.222656 175.097656 251.347656 C 175.269531 250.476562 175.527344 249.625 175.871094 248.800781 C 176.210938 247.976562 176.628906 247.195312 177.125 246.453125 C 177.621094 245.714844 178.183594 245.027344 178.8125 244.398438 C 179.441406 243.765625 180.128906 243.203125 180.871094 242.707031 C 181.613281 242.214844 182.394531 241.796875 183.21875 241.453125 C 184.042969 241.113281 184.890625 240.855469 185.765625 240.683594 C 186.640625 240.507812 187.523438 240.421875 188.414062 240.421875 Z M 188.414062 240.421875 " fill-opacity="1" fill-rule="nonzero"/></g><g clip-path="url(#b98b5a4539)"><path fill="#fa8080" d="M 188.414062 347.074219 L 421.785156 347.074219 C 422.675781 347.074219 423.558594 347.160156 424.433594 347.335938 C 425.308594 347.507812 426.15625 347.765625 426.980469 348.105469 C 427.804688 348.449219 428.585938 348.867188 429.328125 349.363281 C 430.066406 349.855469 430.753906 350.417969 431.382812 351.050781 C 432.015625 351.679688 432.578125 352.367188 433.074219 353.105469 C 433.566406 353.847656 433.984375 354.632812 434.328125 355.453125 C 434.667969 356.277344 434.925781 357.128906 435.101562 358 C 435.273438 358.875 435.359375 359.757812 435.359375 360.648438 L 435.359375 404.953125 C 435.359375 405.84375 435.273438 406.726562 435.101562 407.601562 C 434.925781 408.476562 434.667969 409.324219 434.328125 410.148438 C 433.984375 410.972656 433.566406 411.753906 433.074219 412.496094 C 432.578125 413.238281 432.015625 413.921875 431.382812 414.554688 C 430.753906 415.183594 430.066406 415.746094 429.328125 416.242188 C 428.585938 416.738281 427.804688 417.15625 426.980469 417.496094 C 426.15625 417.839844 425.308594 418.09375 424.433594 418.269531 C 423.558594 418.445312 422.675781 418.53125 421.785156 418.53125 L 188.414062 418.53125 C 187.523438 418.53125 186.640625 418.445312 185.765625 418.269531 C 184.890625 418.09375 184.042969 417.839844 183.21875 417.496094 C 182.394531 417.15625 181.613281 416.738281 180.871094 416.242188 C 180.128906 415.746094 179.441406 415.183594 178.8125 414.554688 C 178.183594 413.921875 177.621094 413.238281 177.125 412.496094 C 176.628906 411.753906 176.210938 410.972656 175.871094 410.148438 C 175.527344 409.324219 175.269531 408.476562 175.097656 407.601562 C 174.921875 406.726562 174.835938 405.84375 174.835938 404.953125 L 174.835938 360.648438 C 174.835938 359.757812 174.921875 358.875 175.097656 358 C 175.269531 357.128906 175.527344 356.277344 175.871094 355.453125 C 176.210938 354.632812 176.628906 353.847656 177.125 353.105469 C 177.621094 352.367188 178.183594 351.679688 178.8125 351.050781 C 179.441406 350.417969 180.128906 349.855469 180.871094 349.363281 C 181.613281 348.867188 182.394531 348.449219 183.21875 348.105469 C 184.042969 347.765625 184.890625 347.507812 185.765625 347.335938 C 186.640625 347.160156 187.523438 347.074219 188.414062 347.074219 Z M 188.414062 347.074219 " fill-opacity="1" fill-rule="nonzero"/></g><g clip-path="url(#18db101383)"><path fill="#fa8080" d="M 188.414062 453.726562 L 668.730469 453.726562 C 669.621094 453.726562 670.507812 453.8125 671.378906 453.988281 C 672.253906 454.160156 673.105469 454.417969 673.925781 454.757812 C 674.75 455.101562 675.53125 455.519531 676.273438 456.015625 C 677.015625 456.507812 677.703125 457.070312 678.332031 457.703125 C 678.960938 458.332031 679.523438 459.019531 680.019531 459.757812 C 680.515625 460.5 680.933594 461.285156 681.273438 462.105469 C 681.617188 462.929688 681.875 463.78125 682.046875 464.652344 C 682.222656 465.527344 682.308594 466.410156 682.308594 467.300781 L 682.308594 511.605469 C 682.308594 512.496094 682.222656 513.378906 682.046875 514.253906 C 681.875 515.128906 681.617188 515.976562 681.273438 516.800781 C 680.933594 517.625 680.515625 518.40625 680.019531 519.148438 C 679.523438 519.890625 678.960938 520.574219 678.332031 521.207031 C 677.703125 521.835938 677.015625 522.398438 676.273438 522.894531 C 675.53125 523.390625 674.75 523.808594 673.925781 524.148438 C 673.105469 524.492188 672.253906 524.746094 671.378906 524.921875 C 670.507812 525.097656 669.621094 525.183594 668.730469 525.183594 L 188.414062 525.183594 C 187.523438 525.183594 186.640625 525.097656 185.765625 524.921875 C 184.890625 524.746094 184.042969 524.492188 183.21875 524.148438 C 182.394531 523.808594 181.613281 523.390625 180.871094 522.894531 C 180.128906 522.398438 179.441406 521.835938 178.8125 521.207031 C 178.183594 520.574219 177.621094 519.890625 177.125 519.148438 C 176.628906 518.40625 176.210938 517.625 175.871094 516.800781 C 175.527344 515.976562 175.269531 515.128906 175.097656 514.253906 C 174.921875 513.378906 174.835938 512.496094 174.835938 511.605469 L 174.835938 467.300781 C 174.835938 466.410156 174.921875 465.527344 175.097656 464.652344 C 175.269531 463.78125 175.527344 462.929688 175.871094 462.105469 C 176.210938 461.285156 176.628906 460.5 177.125 459.757812 C 177.621094 459.019531 178.183594 458.332031 178.8125 457.703125 C 179.441406 457.070312 180.128906 456.507812 180.871094 456.015625 C 181.613281 455.519531 182.394531 455.101562 183.21875 454.757812 C 184.042969 454.417969 184.890625 454.160156 185.765625 453.988281 C 186.640625 453.8125 187.523438 453.726562 188.414062 453.726562 Z M 188.414062 453.726562 " fill-opacity="1" fill-rule="nonzero"/></g></svg>